# xmcd
#
# Track frame offsets: 
#        150
#        17975
#        38700
#        59500
#
# Disc length: 988 seconds
#
# Revision: 5
# Processed by: cddbd v1.5.2PL0 Copyright (c) Steve Scherf et al.
# Submitted via: ExactAudioCopy v1.0b3
#
DISCID=2f03da04
DTITLE=Thomas D. - Rückenwind
DYEAR=1900
DGENRE=Blues
TTITLE0=Rückenwind (Single Version)
TTITLE1=Rückenwind (Truckers Delight Version)
TTITLE2=Rückenwind (Truckers Delight Instrumental)
TTITLE3=Solo Radio Show
EXTD=
EXTT0=\n
EXTT1=Truckes Delight Version\n
EXTT2=Truckers Delight Instrumental\n
EXTT3=
PLAYORDER=
